<svg width="35" height="35" viewBox="0 0 35 35" fill="none" xmlns="http://www.w3.org/2000/svg">
<path d="M32.2656 9.84376C32.2661 9.77977 32.2531 9.71641 32.2273 9.65782C32.201 9.6046 32.1679 9.55497 32.1289 9.51017L32.0851 9.47735C32.0527 9.44398 32.0136 9.41788 31.9703 9.40079L31.9211 9.37345C31.8594 9.33471 31.7906 9.30868 31.7187 9.29688H29.5312C29.3862 9.29688 29.2471 9.3545 29.1445 9.45706C29.042 9.55962 28.9844 9.69872 28.9844 9.84376C28.9844 9.9888 29.042 10.1279 29.1445 10.2305C29.2471 10.333 29.3862 10.3906 29.5312 10.3906H30.4008L27.8906 12.8899C27.5608 12.69 27.1825 12.5844 26.7969 12.5844C26.4112 12.5844 26.0329 12.69 25.7031 12.8899L23.2039 10.3906C23.4158 10.0348 23.5223 9.62602 23.5111 9.21197C23.4998 8.79792 23.3712 8.39558 23.1403 8.05174C22.9094 7.7079 22.5855 7.43669 22.2065 7.26967C21.8275 7.10264 21.4088 7.04666 20.9992 7.10823C20.5896 7.1698 20.2059 7.3464 19.8927 7.61749C19.5796 7.88857 19.3498 8.24299 19.2301 8.63954C19.1105 9.03608 19.1059 9.45845 19.2169 9.85751C19.3278 10.2566 19.5498 10.6159 19.857 10.8938L18.982 12.5344C17.5628 11.9393 15.9796 11.862 14.5091 12.3158C13.0387 12.7696 11.7745 13.7258 10.9375 15.0172C10.9431 14.9334 10.9431 14.8494 10.9375 14.7656C10.9375 14.1855 10.707 13.6291 10.2968 13.2188C9.88655 12.8086 9.33015 12.5781 8.74999 12.5781C8.16982 12.5781 7.61343 12.8086 7.20319 13.2188C6.79295 13.6291 6.56249 14.1855 6.56249 14.7656C6.56543 15.2215 6.71074 15.6651 6.97811 16.0344L2.86014 20.9563C2.81409 21.0115 2.7794 21.0753 2.75805 21.144C2.7367 21.2127 2.7291 21.2849 2.73571 21.3566C2.74231 21.4282 2.76298 21.4978 2.79653 21.5614C2.83009 21.6251 2.87586 21.6814 2.93124 21.7274C3.02651 21.8168 3.15067 21.8692 3.28124 21.875C3.36158 21.8751 3.44096 21.8576 3.51374 21.8235C3.58652 21.7895 3.65091 21.7399 3.70233 21.6781L7.81483 16.7563C8.21061 16.9504 8.65662 17.0178 9.09211 16.9493C9.52759 16.8808 9.93136 16.6797 10.2484 16.3734C9.98503 17.0843 9.84806 17.8357 9.84374 18.5938C9.84131 19.7835 10.1623 20.9514 10.7725 21.9728C11.3826 22.9941 12.259 23.8304 13.3077 24.3921C14.3564 24.9538 15.5382 25.2199 16.7265 25.1618C17.9147 25.1038 19.0649 24.7238 20.0539 24.0625C20.0346 24.1782 20.0236 24.2952 20.0211 24.4125C20.0191 24.6993 20.0748 24.9836 20.1847 25.2485C20.2946 25.5134 20.4565 25.7535 20.6609 25.9547L22.9687 28.2625C23.3806 28.6744 23.9393 28.9058 24.5219 28.9058C25.1044 28.9058 25.6631 28.6744 26.075 28.2625C26.4869 27.8506 26.7183 27.2919 26.7183 26.7094C26.7183 26.1268 26.4869 25.5682 26.075 25.1563L23.7508 22.8375C23.5496 22.6331 23.3094 22.4712 23.0445 22.3613C22.7796 22.2514 22.4954 22.1957 22.2086 22.1977C22.0913 22.2002 21.9743 22.2112 21.8586 22.2305C22.3424 21.5054 22.677 20.6912 22.8427 19.8355C23.0085 18.9797 23.002 18.0995 22.8238 17.2462C22.6457 16.393 22.2993 15.5837 21.8049 14.8658C21.3105 14.1479 20.6781 13.5357 19.9445 13.0649L20.825 11.4242C21.0944 11.4917 21.3747 11.5042 21.649 11.461C21.9234 11.4178 22.1862 11.3197 22.4219 11.1727L24.9211 13.6719C24.7219 14.0038 24.6144 14.3827 24.6095 14.7697C24.6047 15.1568 24.7026 15.5383 24.8933 15.8751C25.084 16.212 25.3607 16.4922 25.6952 16.6871C26.0296 16.8821 26.4098 16.9848 26.7969 16.9848C27.184 16.9848 27.5641 16.8821 27.8986 16.6871C28.233 16.4922 28.5097 16.212 28.7004 15.8751C28.8911 15.5383 28.9891 15.1568 28.9842 14.7697C28.9793 14.3827 28.8718 14.0038 28.6726 13.6719L31.1719 11.1617V12.0313C31.1719 12.1763 31.2295 12.3154 31.332 12.418C31.4346 12.5205 31.5737 12.5781 31.7187 12.5781C31.8638 12.5781 32.0029 12.5205 32.1054 12.418C32.208 12.3154 32.2656 12.1763 32.2656 12.0313V9.84376ZM16.4062 13.125C17.1131 13.1261 17.8131 13.2635 18.468 13.5297L17.4344 15.482C17.1032 15.3696 16.7559 15.3124 16.4062 15.3125C15.8913 15.3137 15.3838 15.4362 14.925 15.6699C14.4661 15.9036 14.0687 16.242 13.7648 16.6578L11.7906 15.6734C12.2828 14.8941 12.9641 14.2518 13.771 13.8063C14.578 13.3607 15.4845 13.1264 16.4062 13.125ZM16.4062 16.4063C16.8389 16.4063 17.2618 16.5346 17.6215 16.7749C17.9813 17.0153 18.2617 17.3569 18.4272 17.7566C18.5928 18.1564 18.6361 18.5962 18.5517 19.0205C18.4673 19.4449 18.259 19.8346 17.953 20.1406C17.6471 20.4465 17.2573 20.6548 16.833 20.7392C16.4087 20.8236 15.9688 20.7803 15.5691 20.6147C15.1694 20.4492 14.8278 20.1688 14.5874 19.8091C14.347 19.4493 14.2187 19.0264 14.2187 18.5938C14.2187 18.0136 14.4492 17.4572 14.8594 17.047C15.2697 16.6367 15.8261 16.4063 16.4062 16.4063ZM8.74999 15.8594C8.53366 15.8594 8.3222 15.7952 8.14233 15.6751C7.96246 15.5549 7.82228 15.3841 7.73949 15.1842C7.65671 14.9843 7.63505 14.7644 7.67725 14.5523C7.71945 14.3401 7.82362 14.1452 7.97659 13.9922C8.12955 13.8393 8.32444 13.7351 8.53661 13.6929C8.74877 13.6507 8.96869 13.6724 9.16855 13.7551C9.3684 13.8379 9.53922 13.9781 9.65941 14.158C9.77959 14.3378 9.84374 14.5493 9.84374 14.7656C9.84374 15.0557 9.7285 15.3339 9.52338 15.539C9.31827 15.7441 9.04007 15.8594 8.74999 15.8594ZM22.9687 23.6195L25.2875 25.9383C25.4927 26.1435 25.608 26.4219 25.608 26.7121C25.608 27.0024 25.4927 27.2807 25.2875 27.4859C25.0823 27.6912 24.8039 27.8065 24.5137 27.8065C24.2234 27.8065 23.9451 27.6912 23.7398 27.4859L21.432 25.1563C21.265 24.946 21.1812 24.6817 21.1965 24.4136C21.2119 24.1456 21.3253 23.8925 21.5151 23.7026C21.705 23.5128 21.958 23.3994 22.2261 23.3841C22.4941 23.3687 22.7585 23.4526 22.9687 23.6195ZM21.875 18.5938C21.8768 19.3966 21.7018 20.19 21.3625 20.9176C21.0232 21.6452 20.5278 22.2892 19.9116 22.8038C19.2953 23.3184 18.5733 23.691 17.7969 23.8951C17.0204 24.0993 16.2086 24.13 15.4189 23.985C14.6293 23.8401 13.8812 23.5231 13.2279 23.0565C12.5746 22.5899 12.032 21.9851 11.6387 21.2852C11.2454 20.5853 11.011 19.8074 10.9522 19.0067C10.8934 18.206 11.0116 17.4022 11.2984 16.6524L13.2672 17.6313C13.1299 18.0823 13.0914 18.5575 13.1544 19.0247C13.2173 19.492 13.3802 19.9401 13.6319 20.3387C13.8836 20.7373 14.2183 21.077 14.6131 21.3346C15.0079 21.5922 15.4536 21.7618 15.9198 21.8317C16.386 21.9016 16.8618 21.8702 17.3148 21.7396C17.7678 21.6091 18.1873 21.3825 18.5449 21.0752C18.9024 20.768 19.1895 20.3873 19.3867 19.9591C19.5839 19.5309 19.6865 19.0652 19.6875 18.5938C19.6865 18.0913 19.5701 17.5957 19.3472 17.1454C19.1244 16.695 18.8011 16.3018 18.4023 15.9961L19.4359 14.0438C20.1857 14.5427 20.8006 15.2191 21.2261 16.0128C21.6516 16.8066 21.8745 17.6931 21.875 18.5938ZM20.2344 9.29688C20.2344 9.0068 20.3496 8.7286 20.5547 8.52349C20.7598 8.31837 21.038 8.20313 21.3281 8.20313C21.6182 8.20313 21.8964 8.31837 22.1015 8.52349C22.3066 8.7286 22.4219 9.0068 22.4219 9.29688C22.4206 9.5865 22.3046 9.8638 22.0992 10.068C21.895 10.2734 21.6177 10.3894 21.3281 10.3906C21.038 10.3906 20.7598 10.2754 20.5547 10.0703C20.3496 9.86516 20.2344 9.58696 20.2344 9.29688ZM26.7969 15.8594C26.5068 15.8594 26.2286 15.7441 26.0235 15.539C25.8183 15.3339 25.7031 15.0557 25.7031 14.7656C25.7043 14.476 25.8204 14.1987 26.0258 13.9945C26.2307 13.7908 26.5079 13.6765 26.7969 13.6765C27.0858 13.6765 27.363 13.7908 27.568 13.9945C27.7734 14.1987 27.8894 14.476 27.8906 14.7656C27.8906 15.0557 27.7754 15.3339 27.5703 15.539C27.3651 15.7441 27.0869 15.8594 26.7969 15.8594Z" fill="black"/>
</svg>
