<svg width="35" height="35" viewBox="0 0 35 35" fill="none" xmlns="http://www.w3.org/2000/svg">
<path d="M28.027 28.5906H18.0465V26.6437C18.0494 26.1041 18.2654 25.5875 18.6475 25.2065C19.0295 24.8254 19.5467 24.6108 20.0863 24.6094H20.4363C20.969 25.4272 21.7025 26.0947 22.5669 26.548C23.4313 27.0012 24.3975 27.2251 25.3731 27.1983C26.3487 27.1714 27.3011 26.8946 28.1392 26.3944C28.9773 25.8942 29.673 25.1873 30.1598 24.3414C30.2078 24.2582 30.233 24.1639 30.233 24.0679C30.233 23.9719 30.2078 23.8776 30.1598 23.7945C29.674 22.948 28.979 22.2402 28.1415 21.739C27.3039 21.2379 26.3518 20.96 25.3762 20.932C24.4005 20.904 23.434 21.1269 22.5691 21.5792C21.7042 22.0316 20.9699 22.6983 20.4363 23.5156H20.0863C19.3376 23.5131 18.6133 23.7811 18.0465 24.2703V21.0273L19.2551 19.4578C19.6465 18.9532 20.1067 18.5059 20.6223 18.1289C21.489 18.5669 22.4533 18.7762 23.4236 18.7368C24.3939 18.6975 25.338 18.4108 26.1664 17.904C26.9948 17.3972 27.68 16.6872 28.1568 15.8412C28.6336 14.9952 28.8864 14.0414 28.891 13.0703C28.892 12.9745 28.8677 12.8801 28.8207 12.7966C28.7736 12.7131 28.7055 12.6434 28.623 12.5945C27.7784 12.0957 26.8194 11.8231 25.8386 11.8031C24.8579 11.7831 23.8886 12.0164 23.0243 12.4804C22.16 12.9444 21.43 13.6235 20.9048 14.452C20.3797 15.2805 20.077 16.2305 20.0262 17.2101C19.4056 17.6547 18.853 18.1871 18.3855 18.7906L18.0465 19.2336V13.4039C18.0446 12.5176 18.1774 11.6362 18.4402 10.7898C19.4059 10.7283 20.34 10.4221 21.1547 9.90004C21.9694 9.37801 22.6379 8.6573 23.0973 7.80573C23.5567 6.95415 23.792 5.9997 23.7809 5.03216C23.7698 4.06462 23.5128 3.11581 23.034 2.27498C22.9865 2.1905 22.9174 2.12016 22.8338 2.07116C22.7502 2.02215 22.6551 1.99624 22.5582 1.99607C21.5555 1.99246 20.5694 2.25096 19.6974 2.74594C18.8254 3.24091 18.098 3.95518 17.5871 4.81795C17.5871 4.85623 17.5488 4.89998 17.527 4.93826C16.7208 4.23467 15.6876 3.84621 14.6176 3.84451H14.5738C14.4779 3.84564 14.3839 3.872 14.3013 3.92096C14.2188 3.96992 14.1505 4.03974 14.1035 4.12341C13.746 4.75316 13.5468 5.46038 13.5233 6.18417C13.4998 6.90795 13.6525 7.62662 13.9684 8.27827C14.2842 8.92992 14.7538 9.49503 15.3365 9.92492C15.9193 10.3548 16.5978 10.6366 17.3137 10.7461C17.0742 11.6117 16.9528 12.5057 16.9527 13.4039V16.4937L16.6137 16.0508C16.1462 15.4473 15.5936 14.9149 14.973 14.4703C14.924 13.4897 14.6226 12.5384 14.0982 11.7084C13.5737 10.8784 12.8439 10.1979 11.9793 9.7326C11.1148 9.26733 10.1448 9.03309 9.16317 9.05256C8.18156 9.07203 7.2216 9.34454 6.37617 9.84373C6.29373 9.8926 6.22559 9.96228 6.17856 10.0458C6.13153 10.1293 6.10726 10.2237 6.1082 10.3195C6.11284 11.2906 6.36557 12.2444 6.84242 13.0904C7.31926 13.9364 8.00439 14.6465 8.83278 15.1532C9.66117 15.66 10.6053 15.9467 11.5757 15.9861C12.546 16.0254 13.5102 15.8161 14.377 15.3781C14.8925 15.7551 15.3527 16.2024 15.7441 16.707L16.9527 18.2875V21.6781C16.3857 21.1887 15.6619 20.9189 14.9129 20.9179H14.5629C14.0298 20.1004 13.2958 19.4333 12.4312 18.9804C11.5666 18.5276 10.6002 18.3043 9.6246 18.3317C8.64896 18.3591 7.69669 18.6365 6.85888 19.1371C6.02107 19.6378 5.32575 20.3451 4.83945 21.1914C4.79145 21.2745 4.76619 21.3688 4.76619 21.4648C4.76619 21.5608 4.79145 21.6551 4.83945 21.7383C5.32575 22.5845 6.02107 23.2918 6.85888 23.7925C7.69669 24.2932 8.64896 24.5705 9.6246 24.5979C10.6002 24.6254 11.5666 24.402 12.4312 23.9492C13.2958 23.4964 14.0298 22.8293 14.5629 22.0117H14.9129C15.1815 22.0124 15.4473 22.066 15.6952 22.1695C15.9431 22.2729 16.1681 22.4242 16.3575 22.6146C16.547 22.8051 16.697 23.0309 16.7991 23.2794C16.9013 23.5278 16.9535 23.7939 16.9527 24.0625V28.6015H6.97227C6.38703 28.6015 5.82576 28.834 5.41193 29.2478C4.99811 29.6617 4.76563 30.2229 4.76562 30.8082C4.76563 31.3934 4.99811 31.9547 5.41193 32.3685C5.82576 32.7823 6.38703 33.0148 6.97227 33.0148H28.027C28.6122 33.0148 29.1735 32.7823 29.5873 32.3685C30.0011 31.9547 30.2336 31.3934 30.2336 30.8082C30.2336 30.2229 30.0011 29.6617 29.5873 29.2478C29.1735 28.834 28.6122 28.6015 28.027 28.6015V28.5906ZM25.2051 22.0281C25.9608 22.0317 26.7043 22.2193 27.3713 22.5748C28.0383 22.9302 28.6087 23.4427 29.0332 24.0679C28.6457 24.6488 28.1311 25.1337 27.5284 25.4861C26.9256 25.8385 26.2506 26.049 25.5544 26.1017C24.8581 26.1544 24.1591 26.0479 23.5102 25.7903C22.8612 25.5327 22.2795 25.1307 21.809 24.6148H26.523C26.6681 24.6148 26.8072 24.5572 26.9097 24.4546C27.0123 24.3521 27.0699 24.213 27.0699 24.0679C27.0699 23.9229 27.0123 23.7838 26.9097 23.6812C26.8072 23.5787 26.6681 23.5211 26.523 23.5211H21.8145C22.2454 23.0498 22.769 22.6726 23.3524 22.4129C23.9358 22.1531 24.5665 22.0166 25.2051 22.0117V22.0281ZM23.4441 13.4969C24.1032 13.1265 24.8426 12.9225 25.5983 12.9025C26.354 12.8825 27.1031 13.0471 27.7809 13.382C27.7296 14.0783 27.5208 14.7538 27.1701 15.3575C26.8193 15.9611 26.3359 16.4771 25.7564 16.8664C25.1769 17.2558 24.5164 17.5082 23.825 17.6047C23.1335 17.7012 22.4292 17.6392 21.7652 17.4234L25.8996 15.0773C26.0258 15.0048 26.118 14.8851 26.1559 14.7446C26.1939 14.6041 26.1745 14.4543 26.102 14.3281C26.0294 14.2019 25.9098 14.1097 25.7692 14.0718C25.6287 14.0338 25.4789 14.0532 25.3527 14.1258L21.2129 16.4719C21.3588 15.8486 21.6324 15.2624 22.0165 14.7503C22.4005 14.2382 22.8867 13.8114 23.4441 13.4969ZM9.54258 14.3117C8.88566 13.9355 8.33055 13.4046 7.92549 12.7651C7.52044 12.1256 7.27769 11.3968 7.21836 10.6422C7.84273 10.3286 8.53021 10.1611 9.22883 10.1522C9.92745 10.1434 10.619 10.2934 11.2511 10.5911C11.8832 10.8887 12.4394 11.3261 12.8776 11.8702C13.3159 12.4144 13.6248 13.051 13.7809 13.732L9.64102 11.3859C9.51483 11.3134 9.365 11.294 9.2245 11.3319C9.08399 11.3699 8.96432 11.4621 8.8918 11.5883C8.81928 11.7144 8.79985 11.8643 8.8378 12.0048C8.87575 12.1453 8.96796 12.265 9.09414 12.3375L13.2285 14.6836C12.6216 14.8785 11.981 14.9462 11.3468 14.8822C10.7125 14.8182 10.0983 14.624 9.54258 14.3117ZM9.79414 23.5156C9.03812 23.5134 8.2941 23.3264 7.62688 22.9708C6.95967 22.6153 6.38949 22.102 5.96602 21.4758C6.35485 20.8967 6.87 20.4134 7.47269 20.0623C8.07537 19.7112 8.74987 19.5014 9.44538 19.4487C10.1409 19.3961 10.8393 19.502 11.488 19.7583C12.1366 20.0147 12.7187 20.4149 13.1902 20.9289H11.6973C11.5522 20.9289 11.4131 20.9865 11.3106 21.0891C11.208 21.1916 11.1504 21.3307 11.1504 21.4758C11.1504 21.6208 11.208 21.7599 11.3106 21.8625C11.4131 21.965 11.5522 22.0226 11.6973 22.0226H13.1848C12.7523 22.4909 12.2281 22.8651 11.6448 23.122C11.0615 23.3788 10.4315 23.5128 9.79414 23.5156ZM18.5441 5.38123C18.9299 4.73013 19.4688 4.18306 20.114 3.78755C20.7592 3.39203 21.4912 3.16003 22.2465 3.11169C22.5586 3.75386 22.7174 4.45966 22.7106 5.17361C22.7037 5.88756 22.5313 6.59018 22.2069 7.22621C21.8825 7.86225 21.415 8.41437 20.8411 8.83914C20.2673 9.26391 19.6027 9.54975 18.8996 9.6742C19.1016 9.24243 19.3375 8.82733 19.6051 8.43279L20.759 6.74294C20.7992 6.68334 20.8273 6.61639 20.8416 6.54593C20.856 6.47547 20.8563 6.40287 20.8426 6.33229C20.8289 6.2617 20.8014 6.1945 20.7617 6.13454C20.722 6.07457 20.6709 6.02301 20.6113 5.98279C20.5517 5.94257 20.4848 5.91449 20.4143 5.90014C20.3439 5.8858 20.2713 5.88547 20.2007 5.89918C20.1301 5.91289 20.0629 5.94037 20.0029 5.98005C19.943 6.01973 19.8914 6.07084 19.8512 6.13044L18.6973 7.82029C18.4629 8.17009 18.2528 8.53553 18.0684 8.91404C17.9065 8.32236 17.8637 7.70442 17.9426 7.09608C18.0214 6.48775 18.2203 5.90113 18.5277 5.37029L18.5441 5.38123ZM15.0934 8.06091C14.8232 7.59583 14.667 7.07339 14.6376 6.53635C14.6081 5.99931 14.7062 5.46292 14.9238 4.97107C15.7427 5.04322 16.5061 5.41518 17.0676 6.0156C16.7051 7.18985 16.73 8.44958 17.1387 9.60857C16.7095 9.49701 16.3064 9.30194 15.9527 9.0345C15.5989 8.76706 15.3013 8.43251 15.077 8.04998L15.0934 8.06091ZM28.027 31.9101H6.97227C6.67711 31.9101 6.39404 31.7929 6.18533 31.5842C5.97663 31.3755 5.85938 31.0924 5.85938 30.7972C5.85938 30.5021 5.97663 30.219 6.18533 30.0103C6.39404 29.8016 6.67711 29.6844 6.97227 29.6844H28.027C28.3221 29.6844 28.6052 29.8016 28.8139 30.0103C29.0226 30.219 29.1398 30.5021 29.1398 30.7972C29.1398 31.0924 29.0226 31.3755 28.8139 31.5842C28.6052 31.7929 28.3221 31.9101 28.027 31.9101ZM9.6957 21.4648C9.6957 21.6099 9.63809 21.749 9.53553 21.8515C9.43297 21.9541 9.29387 22.0117 9.14883 22.0117H8.32305C8.17801 22.0117 8.03891 21.9541 7.93635 21.8515C7.83379 21.749 7.77617 21.6099 7.77617 21.4648C7.77617 21.3198 7.83379 21.1807 7.93635 21.0781C8.03891 20.9756 8.17801 20.9179 8.32305 20.9179H9.14883C9.29387 20.9179 9.43297 20.9756 9.53553 21.0781C9.63809 21.1807 9.6957 21.3198 9.6957 21.4648Z" fill="black"/>
</svg>
