<svg width="35" height="35" viewBox="0 0 35 35" fill="none" xmlns="http://www.w3.org/2000/svg">
<path d="M3 6.91667C3 6.14312 3.30729 5.40125 3.85427 4.85427C4.40125 4.30729 5.14312 4 5.91667 4H14.6667V30.25H5.91667C5.14312 30.25 4.40125 29.9427 3.85427 29.3957C3.30729 28.8487 3 28.1069 3 27.3333V6.91667ZM20.5 4H29.25C30.0235 4 30.7654 4.30729 31.3124 4.85427C31.8594 5.40125 32.1667 6.14312 32.1667 6.91667V14.2083H20.5V4ZM20.5 20.0417H32.1667V27.3333C32.1667 28.1069 31.8594 28.8487 31.3124 29.3957C30.7654 29.9427 30.0235 30.25 29.25 30.25H20.5V20.0417Z" stroke="black" stroke-width="2" stroke-linecap="round" stroke-linejoin="round"/>
</svg>
