<svg width="35" height="35" viewBox="0 0 35 35" fill="none" xmlns="http://www.w3.org/2000/svg">
<path d="M30.227 0.530273H27.0452C26.727 0.530273 26.5149 0.742395 26.5149 1.06058C26.5149 1.37876 26.727 1.59088 27.0452 1.59088H29.0073L23.8104 6.78785L19.621 2.70452C19.4089 2.49239 19.0907 2.49239 18.8786 2.70452L14.5831 6.99997V4.71967C14.5831 4.40149 14.371 4.18936 14.0528 4.18936C13.7346 4.18936 13.5225 4.40149 13.5225 4.71967V13.4166C12.9922 12.9924 12.5149 12.5151 11.9846 11.9848C12.8861 11.0833 13.0982 9.59845 12.3558 8.48482C11.6134 7.37118 8.00734 5.35603 7.26491 4.98482C7.10582 4.87876 6.8937 4.87876 6.73461 4.98482C6.57552 5.09088 6.46946 5.24997 6.46946 5.46209C6.52249 6.25755 6.84067 10.3939 7.5831 11.5075C8.32552 12.6742 9.81037 13.0985 11.0831 12.5682C11.8255 13.4166 12.674 14.106 13.4695 14.6894V17.2348H4.77249C4.45431 17.2348 4.24219 17.4469 4.24219 17.7651V20.4166C4.24219 20.7348 4.45431 20.9469 4.77249 20.9469H5.62098L8.21946 33.9924C8.27249 34.2575 8.48461 34.4166 8.74976 34.4166H19.3028C19.5679 34.4166 19.7801 34.2575 19.8331 33.9924L22.4316 20.9469H23.3331C23.6513 20.9469 23.8634 20.7348 23.8634 20.4166V17.7651C23.8634 17.4469 23.6513 17.2348 23.3331 17.2348H14.5831V16.5454C15.4316 16.0151 16.227 15.2727 16.9695 14.4242C18.2422 15.0075 19.727 14.5303 20.4695 13.3636C21.2119 12.25 21.5301 8.11361 21.5831 7.31815C21.5831 7.10603 21.5301 6.94694 21.3179 6.84088C21.1058 6.73482 20.9467 6.73482 20.7876 6.84088C20.0452 7.21209 16.4392 9.22724 15.6967 10.3409C14.9543 11.4545 15.1664 12.9394 16.0679 13.8409C15.5907 14.3712 15.0604 14.8485 14.5301 15.2727V8.48482L19.1967 3.81815L23.3331 7.95452C23.5452 8.16664 23.8634 8.16664 24.0755 7.95452L29.6967 2.3333V4.29542C29.6967 4.61361 29.9089 4.82573 30.227 4.82573C30.5452 4.82573 30.7573 4.61361 30.7573 4.29542V1.06058C30.7573 0.742395 30.5452 0.530273 30.227 0.530273ZM8.48461 10.9772C8.1134 10.3939 7.79522 8.16664 7.63613 6.41664C9.17401 7.31815 11.0831 8.48482 11.4543 9.06815C11.8786 9.75755 11.7725 10.606 11.2952 11.1894C10.7649 10.5 10.2346 9.81058 9.8634 9.06815C9.70431 8.803 9.38613 8.69694 9.12098 8.85603C8.85582 9.01512 8.74976 9.3333 8.90885 9.59845C9.28007 10.3409 9.81037 11.0303 10.3407 11.7197C9.59825 11.9318 8.90885 11.6136 8.48461 10.9772ZM18.8786 33.4091H9.17401L6.68158 21H21.371L18.8786 33.4091ZM22.8028 19.9394C19.3028 19.9394 8.74976 19.9394 5.30279 19.9394V18.3485H22.8028V19.9394ZM16.6513 10.9242C17.0225 10.3409 18.9316 9.12118 20.4695 8.2727C20.3104 10.0227 19.9922 12.25 19.621 12.8333C19.2498 13.4166 18.5073 13.7348 17.7649 13.5757C18.2952 12.8863 18.8255 12.1439 19.1967 11.4545C19.3558 11.1894 19.2498 10.8712 18.9846 10.7121C18.7195 10.553 18.4013 10.6591 18.2422 10.9242C17.871 11.6136 17.3937 12.356 16.8104 13.0454C16.2801 12.4621 16.174 11.6136 16.6513 10.9242Z" fill="black"/>
<path d="M10.9245 31.8182H17.1821C17.4473 31.8182 17.6594 31.6591 17.7124 31.3939L19.3563 23.1742C19.4094 22.9091 19.2503 22.5909 18.9321 22.5379C18.667 22.4849 18.3488 22.6439 18.2957 22.9621L16.7579 30.7576H10.9776C10.6594 30.7576 10.4473 30.9697 10.4473 31.2879C10.3942 31.6061 10.6594 31.8182 10.9245 31.8182Z" fill="black"/>
</svg>
