<svg width="35" height="35" viewBox="0 0 35 35" fill="none" xmlns="http://www.w3.org/2000/svg">
<path fill-rule="evenodd" clip-rule="evenodd" d="M8.75 15.75C9.67826 15.75 10.5685 15.3813 11.2249 14.7249C11.8813 14.0685 12.25 13.1783 12.25 12.25C12.25 11.3217 11.8813 10.4315 11.2249 9.77513C10.5685 9.11875 9.67826 8.75 8.75 8.75C7.82174 8.75 6.9315 9.11875 6.27513 9.77513C5.61875 10.4315 5.25 11.3217 5.25 12.25C5.25 13.1783 5.61875 14.0685 6.27513 14.7249C6.9315 15.3813 7.82174 15.75 8.75 15.75ZM8.75 17.5C9.43944 17.5 10.1221 17.3642 10.7591 17.1004C11.396 16.8365 11.9748 16.4498 12.4623 15.9623C12.9498 15.4748 13.3365 14.896 13.6004 14.2591C13.8642 13.6221 14 12.9394 14 12.25C14 11.5606 13.8642 10.8779 13.6004 10.2409C13.3365 9.60395 12.9498 9.0252 12.4623 8.53769C11.9748 8.05018 11.396 7.66347 10.7591 7.39963C10.1221 7.1358 9.43944 7 8.75 7C7.35761 7 6.02226 7.55312 5.03769 8.53769C4.05312 9.52226 3.5 10.8576 3.5 12.25C3.5 13.6424 4.05312 14.9777 5.03769 15.9623C6.02226 16.9469 7.35761 17.5 8.75 17.5Z" fill="black"/>
<path fill-rule="evenodd" clip-rule="evenodd" d="M6.7445 15.568C6.82599 15.6492 6.89064 15.7458 6.93475 15.8521C6.97886 15.9584 7.00156 16.0724 7.00156 16.1875C7.00156 16.3025 6.97886 16.4165 6.93475 16.5228C6.89064 16.6291 6.82599 16.7257 6.7445 16.807L6.153 17.3967C5.01469 18.5353 4.37515 20.0794 4.375 21.6895V24.9375C4.375 25.1695 4.28281 25.3921 4.11872 25.5562C3.95462 25.7203 3.73206 25.8125 3.5 25.8125C3.26794 25.8125 3.04538 25.7203 2.88128 25.5562C2.71719 25.3921 2.625 25.1695 2.625 24.9375V21.6895C2.62525 19.6153 3.44922 17.6262 4.91575 16.1595L5.5055 15.568C5.58678 15.4865 5.68334 15.4218 5.78964 15.3777C5.89595 15.3336 6.00991 15.3109 6.125 15.3109C6.24009 15.3109 6.35405 15.3336 6.46036 15.3777C6.56666 15.4218 6.66322 15.4865 6.7445 15.568ZM27.3805 15.043C27.299 15.1242 27.2344 15.2208 27.1903 15.3271C27.1461 15.4334 27.1234 15.5474 27.1234 15.6625C27.1234 15.7775 27.1461 15.8915 27.1903 15.9978C27.2344 16.1041 27.299 16.2007 27.3805 16.282L27.972 16.8717C29.1103 18.0103 29.7499 19.5544 29.75 21.1645V24.9375C29.75 25.1695 29.8422 25.3921 30.0063 25.5562C30.1704 25.7203 30.3929 25.8125 30.625 25.8125C30.8571 25.8125 31.0796 25.7203 31.2437 25.5562C31.4078 25.3921 31.5 25.1695 31.5 24.9375V21.1645C31.4998 19.0903 30.6758 17.1012 29.2092 15.6345L28.6195 15.043C28.5382 14.9615 28.4417 14.8968 28.3354 14.8527C28.2291 14.8086 28.1151 14.7859 28 14.7859C27.8849 14.7859 27.7709 14.8086 27.6646 14.8527C27.5583 14.8968 27.4618 14.9615 27.3805 15.043Z" fill="black"/>
<path fill-rule="evenodd" clip-rule="evenodd" d="M24.5 15.75C23.5717 15.75 22.6815 15.3812 22.0251 14.7249C21.3688 14.0685 21 13.1783 21 12.25C21 11.3217 21.3688 10.4315 22.0251 9.77513C22.6815 9.11875 23.5717 8.75 24.5 8.75C25.4283 8.75 26.3185 9.11875 26.9749 9.77513C27.6312 10.4315 28 11.3217 28 12.25C28 13.1783 27.6312 14.0685 26.9749 14.7249C26.3185 15.3812 25.4283 15.75 24.5 15.75ZM24.5 17.5C23.8106 17.5 23.1279 17.3642 22.4909 17.1004C21.854 16.8365 21.2752 16.4498 20.7877 15.9623C20.3002 15.4748 19.9135 14.896 19.6496 14.2591C19.3858 13.6221 19.25 12.9394 19.25 12.25C19.25 11.5606 19.3858 10.8779 19.6496 10.2409C19.9135 9.60395 20.3002 9.0252 20.7877 8.53769C21.2752 8.05018 21.854 7.66347 22.4909 7.39963C23.1279 7.1358 23.8106 7 24.5 7C25.8924 7 27.2277 7.55312 28.2123 8.53769C29.1969 9.52226 29.75 10.8576 29.75 12.25C29.75 13.6424 29.1969 14.9777 28.2123 15.9623C27.2277 16.9469 25.8924 17.5 24.5 17.5ZM16.625 23.1875C15.4647 23.1875 14.3519 23.6484 13.5314 24.4689C12.7109 25.2894 12.25 26.4022 12.25 27.5625V29.8375C12.25 30.0696 12.1578 30.2921 11.9937 30.4562C11.8296 30.6203 11.6071 30.7125 11.375 30.7125C11.1429 30.7125 10.9204 30.6203 10.7563 30.4562C10.5922 30.2921 10.5 30.0696 10.5 29.8375V27.5625C10.5 25.938 11.1453 24.3801 12.294 23.2315C13.4426 22.0828 15.0005 21.4375 16.625 21.4375C18.2495 21.4375 19.8074 22.0828 20.956 23.2315C22.1047 24.3801 22.75 25.938 22.75 27.5625V29.8375C22.75 30.0696 22.6578 30.2921 22.4937 30.4562C22.3296 30.6203 22.1071 30.7125 21.875 30.7125C21.6429 30.7125 21.4204 30.6203 21.2563 30.4562C21.0922 30.2921 21 30.0696 21 29.8375V27.5625C21 26.988 20.8868 26.4191 20.667 25.8883C20.4471 25.3575 20.1248 24.8752 19.7186 24.4689C19.3123 24.0627 18.83 23.7404 18.2992 23.5205C17.7684 23.3007 17.1995 23.1875 16.625 23.1875Z" fill="black"/>
<path fill-rule="evenodd" clip-rule="evenodd" d="M16.625 20.5625C17.5533 20.5625 18.4435 20.1938 19.0999 19.5374C19.7563 18.881 20.125 17.9908 20.125 17.0625C20.125 16.1342 19.7563 15.244 19.0999 14.5876C18.4435 13.9312 17.5533 13.5625 16.625 13.5625C15.6967 13.5625 14.8065 13.9312 14.1501 14.5876C13.4937 15.244 13.125 16.1342 13.125 17.0625C13.125 17.9908 13.4937 18.881 14.1501 19.5374C14.8065 20.1938 15.6967 20.5625 16.625 20.5625ZM16.625 22.3125C18.0174 22.3125 19.3527 21.7594 20.3373 20.7748C21.3219 19.7902 21.875 18.4549 21.875 17.0625C21.875 15.6701 21.3219 14.3348 20.3373 13.3502C19.3527 12.3656 18.0174 11.8125 16.625 11.8125C15.2326 11.8125 13.8973 12.3656 12.9127 13.3502C11.9281 14.3348 11.375 15.6701 11.375 17.0625C11.375 18.4549 11.9281 19.7902 12.9127 20.7748C13.8973 21.7594 15.2326 22.3125 16.625 22.3125Z" fill="black"/>
</svg>
