<svg width="35" height="35" viewBox="0 0 35 35" fill="none" xmlns="http://www.w3.org/2000/svg">
<path d="M14.4146 21.5356C16.5096 21.356 18.616 21.356 20.711 21.5356C21.8566 21.6124 22.9945 21.7797 24.1141 22.0361C26.5357 22.5237 28.1162 23.4861 28.779 24.8975C29.3085 26.0702 29.2945 27.4189 28.7408 28.5802C28.0652 29.9917 26.4848 30.9541 24.0248 31.4545C22.9091 31.7057 21.7755 31.8688 20.6345 31.9421C19.3727 32.0833 18.302 32.0833 17.3079 32.0833H16.9127C16.3495 32.0222 15.9226 31.5436 15.9226 30.9733C15.9226 30.4031 16.3495 29.9245 16.9127 29.8634L17.7848 29.8632C18.6589 29.853 19.5384 29.8121 20.4178 29.7351C21.4553 29.6671 22.4863 29.5213 23.5023 29.2988C25.2484 28.9139 26.3446 28.3621 26.6887 27.6307C26.9564 27.0712 26.9564 26.4194 26.6887 25.8599C26.3446 25.1157 25.2484 24.5383 23.5405 24.1918C22.5088 23.9588 21.4604 23.8086 20.4051 23.7427C18.4335 23.563 16.4499 23.563 14.4783 23.7427C13.4366 23.8106 12.4013 23.9564 11.3811 24.179C9.63494 24.5639 8.55155 25.1157 8.19467 25.8471C8.06823 26.1249 8.00301 26.4269 8.00349 26.7325C8.00277 27.0422 8.06796 27.3485 8.19467 27.6307C8.80132 28.4648 9.7243 29.0084 10.7438 29.132L10.8917 29.1721C11.2271 29.2886 11.4904 29.5617 11.593 29.9102C11.7102 30.3084 11.5981 30.7392 11.3021 31.0285C11.006 31.3178 10.5749 31.4176 10.183 31.2877C8.53978 31.018 7.09856 30.0319 6.24458 28.5931C5.69582 27.4277 5.69582 26.0758 6.24458 24.9104C6.9201 23.4604 8.50057 22.5237 10.935 22.0232C12.0812 21.7736 13.2443 21.6106 14.4146 21.5356ZM14.5316 3.51047C17.4336 2.30169 20.7733 2.97262 22.9922 5.21021C25.2112 7.44781 25.8721 10.8111 24.6667 13.7307C23.4612 16.6504 20.6269 18.551 17.4863 18.5459C13.2044 18.5388 9.7369 15.0422 9.7369 10.7313L9.74411 10.3938C9.87337 7.36801 11.7331 4.67608 14.5316 3.51047ZM17.4863 5.14955C16.0136 5.14615 14.6001 5.73273 13.5576 6.77988C12.515 7.82704 11.9292 9.24874 11.9292 10.7313C11.924 12.9953 13.2747 15.0393 15.3508 15.9092C17.427 16.7792 19.8193 16.3037 21.4113 14.7047C23.0032 13.1057 23.481 10.6983 22.6216 8.60619C21.7622 6.51404 19.7351 5.14955 17.4863 5.14955Z" fill="#200E32"/>
</svg>
