<svg width="35" height="35" viewBox="0 0 35 35" fill="none" xmlns="http://www.w3.org/2000/svg">
<path d="M21.8748 7.65625C21.8747 7.87917 21.9428 8.09678 22.0698 8.27994C22.1969 8.46311 22.3769 8.60307 22.5857 8.68109L18.5935 12.6722V8.75C18.5935 8.53371 18.5293 8.32229 18.4091 8.14247C18.2889 7.96264 18.1181 7.82249 17.9183 7.73973C17.7185 7.65696 17.4986 7.6353 17.2865 7.67749C17.0743 7.71967 16.8794 7.8238 16.7265 7.97672L9.07024 15.633C8.96577 15.7339 8.88245 15.8546 8.82513 15.988C8.7678 16.1214 8.73763 16.265 8.73637 16.4102C8.73511 16.5554 8.76278 16.6994 8.81778 16.8339C8.87277 16.9683 8.95399 17.0904 9.05668 17.1931C9.15938 17.2958 9.28149 17.377 9.41591 17.432C9.55033 17.487 9.69435 17.5147 9.83958 17.5134C9.98481 17.5121 10.1283 17.482 10.2618 17.4246C10.3952 17.3673 10.5159 17.284 10.6168 17.1795L16.406 11.3903V15.3125C16.4061 15.5288 16.4702 15.7402 16.5904 15.92C16.7106 16.0999 16.8814 16.24 17.0812 16.3228C17.2811 16.4055 17.5009 16.4272 17.7131 16.385C17.9252 16.3428 18.1201 16.2387 18.2731 16.0858L24.1312 10.2277C24.2208 10.4681 24.3921 10.6693 24.6151 10.7962C24.8381 10.9231 25.0986 10.9676 25.351 10.9218C25.6035 10.8761 25.8318 10.743 25.9961 10.5459C26.1604 10.3489 26.2502 10.1003 26.2498 9.84375V7.65625C26.2498 7.36617 26.1345 7.08797 25.9294 6.88285C25.7243 6.67773 25.4461 6.5625 25.156 6.5625H22.9685C22.6784 6.5625 22.4002 6.67773 22.1951 6.88285C21.99 7.08797 21.8748 7.36617 21.8748 7.65625ZM10.9373 20.7812C11.2273 20.7812 11.5055 20.8965 11.7107 21.1016C11.9158 21.3067 12.031 21.5849 12.031 21.875V26.25C12.031 26.5401 11.9158 26.8183 11.7107 27.0234C11.5055 27.2285 11.2273 27.3438 10.9373 27.3438C10.6472 27.3438 10.369 27.2285 10.1639 27.0234C9.95875 26.8183 9.84352 26.5401 9.84352 26.25V21.875C9.84352 21.5849 9.95875 21.3067 10.1639 21.1016C10.369 20.8965 10.6472 20.7812 10.9373 20.7812Z" fill="black"/>
<path d="M15.3125 16.4062C15.0224 16.4062 14.7442 16.5215 14.5391 16.7266C14.334 16.9317 14.2188 17.2099 14.2188 17.5V26.25C14.2188 26.5401 14.334 26.8183 14.5391 27.0234C14.7442 27.2285 15.0224 27.3438 15.3125 27.3438C15.6026 27.3438 15.8808 27.2285 16.0859 27.0234C16.291 26.8183 16.4062 26.5401 16.4062 26.25V17.5C16.4062 17.2099 16.291 16.9317 16.0859 16.7266C15.8808 16.5215 15.6026 16.4062 15.3125 16.4062ZM19.6875 19.6875C19.9776 19.6875 20.2558 19.8027 20.4609 20.0079C20.666 20.213 20.7812 20.4912 20.7812 20.7812V26.25C20.7812 26.5401 20.666 26.8183 20.4609 27.0234C20.2558 27.2285 19.9776 27.3438 19.6875 27.3438C19.3974 27.3438 19.1192 27.2285 18.9141 27.0234C18.709 26.8183 18.5938 26.5401 18.5938 26.25V20.7812C18.5938 20.4912 18.709 20.213 18.9141 20.0079C19.1192 19.8027 19.3974 19.6875 19.6875 19.6875ZM24.0625 14.2188C23.7724 14.2188 23.4942 14.334 23.2891 14.5391C23.084 14.7442 22.9688 15.0224 22.9688 15.3125V26.25C22.9688 26.5401 23.084 26.8183 23.2891 27.0234C23.4942 27.2285 23.7724 27.3438 24.0625 27.3438C24.3526 27.3438 24.6308 27.2285 24.8359 27.0234C25.041 26.8183 25.1562 26.5401 25.1562 26.25V15.3125C25.1562 15.0224 25.041 14.7442 24.8359 14.5391C24.6308 14.334 24.3526 14.2188 24.0625 14.2188Z" fill="black"/>
<path fill-rule="evenodd" clip-rule="evenodd" d="M8.75 0C7.2996 0 5.9086 0.57617 4.88301 1.60176C3.85742 2.62735 3.28125 4.01835 3.28125 5.46875V29.5312C3.28125 30.9817 3.85742 32.3727 4.88301 33.3982C5.9086 34.4238 7.2996 35 8.75 35H26.25C27.7004 35 29.0914 34.4238 30.117 33.3982C31.1426 32.3727 31.7188 30.9817 31.7188 29.5312V5.46875C31.7188 4.01835 31.1426 2.62735 30.117 1.60176C29.0914 0.57617 27.7004 0 26.25 0L8.75 0ZM5.46875 5.46875C5.46875 4.59851 5.81445 3.76391 6.42981 3.14856C7.04516 2.5332 7.87976 2.1875 8.75 2.1875H26.25C27.1202 2.1875 27.9548 2.5332 28.5702 3.14856C29.1855 3.76391 29.5312 4.59851 29.5312 5.46875V29.5312C29.5312 30.4015 29.1855 31.2361 28.5702 31.8514C27.9548 32.4668 27.1202 32.8125 26.25 32.8125H8.75C7.87976 32.8125 7.04516 32.4668 6.42981 31.8514C5.81445 31.2361 5.46875 30.4015 5.46875 29.5312V5.46875Z" fill="black"/>
</svg>
